<?xml version="1.0" standalone="no"?><!DOCTYPE svg PUBLIC "-//W3C//DTD SVG 1.1//EN" "http://www.w3.org/Graphics/SVG/1.1/DTD/svg11.dtd"><svg t="1699081030853" class="icon" viewBox="0 0 1024 1024" version="1.1" xmlns="http://www.w3.org/2000/svg" p-id="1236" xmlns:xlink="http://www.w3.org/1999/xlink" width="128" height="128"><path d="M481.01 577.357c87.682 0 172.372 23.069 244.92 66.714a28.651 28.651 0 0 0 14.744 4.112c10.143 0 19.337-5.18 24.606-13.873 8.14-13.55 3.752-31.2-9.782-39.348-41.04-24.68-86.076-43.611-134.068-56.374 83.56-49.669 134.856-138.966 134.856-236.506 0-151.788-123.488-275.276-275.276-275.276-151.772 0-275.248 123.488-275.248 275.276 0 151.787 123.476 275.275 275.248 275.275z m0-493.222c120.191 0 217.974 97.771 217.974 217.948 0 120.176-97.783 217.947-217.974 217.947-120.174 0-217.942-97.771-217.942-217.947 0-120.177 97.769-217.948 217.942-217.948zM993.111 768.122H860.914V625.556c0-15.807-12.858-28.667-28.664-28.667-15.807 0-28.667 12.86-28.667 28.667v142.567H661.232c-15.792 0-28.639 12.858-28.639 28.662 0 15.807 12.848 28.667 28.639 28.667h142.351v142.567c0 15.804 12.86 28.662 28.667 28.662 15.805 0 28.664-12.858 28.664-28.662V825.452h132.197c15.804 0 28.662-12.86 28.662-28.667 0-15.805-12.858-28.663-28.662-28.663z" fill="#dbdbdb" p-id="1237"></path><path d="M721.4 890.707H61.956c11.388-105.038 83.722-207.33 185.831-262.008 13.926-7.467 19.178-24.879 11.71-38.813-5.004-9.341-14.68-15.145-25.25-15.145a28.823 28.823 0 0 0-13.539 3.411C90.528 647.85 3.064 784.978 3.064 919.375v28.666H721.4c15.804 0 28.662-12.859 28.662-28.666 0.001-15.808-12.858-28.668-28.662-28.668z" fill="#dbdbdb" p-id="1238"></path></svg>