<?xml version="1.0" encoding="UTF-8"?>
<svg width="32px" height="32px" viewBox="0 0 32 32" version="1.1" xmlns="http://www.w3.org/2000/svg" xmlns:xlink="http://www.w3.org/1999/xlink">
    <title>btn_personal_login</title>
    <g id="页面-3" stroke="none" stroke-width="1" fill="none" fill-rule="evenodd">
        <g id="小程序登录" transform="translate(-64.000000, -956.000000)" fill="#979797" fill-rule="nonzero">
            <g id="退出登录" transform="translate(24.000000, 914.000000)">
                <g id="通用/列表个人中心" transform="translate(0.000000, 8.000000)">
                    <g id="编组" transform="translate(40.000000, 34.000000)">
                        <path d="M25,0.5 C25.8284271,0.5 26.5,1.17157288 26.5,2 C26.5,2.82842712 25.8284271,3.5 25,3.5 L7,3.5 C5.61928813,3.5 4.5,4.61928813 4.5,6 L4.5,26 C4.5,27.3807119 5.61928813,28.5 7,28.5 L25,28.5 C25.8284271,28.5 26.5,29.1715729 26.5,30 C26.5,30.8284271 25.8284271,31.5 25,31.5 L7,31.5 C3.96243388,31.5 1.5,29.0375661 1.5,26 L1.5,6 C1.5,2.96243388 3.96243388,0.5 7,0.5 L25,0.5 Z M24.0606602,8.93933983 L30.0606602,14.9393398 C30.6464466,15.5251263 30.6464466,16.4748737 30.0606602,17.0606602 L24.0606602,23.0606602 C23.4748737,23.6464466 22.5251263,23.6464466 21.9393398,23.0606602 C21.3535534,22.4748737 21.3535534,21.5251263 21.9393398,20.9393398 L25.379,17.5 L12,17.5 C11.1715729,17.5 10.5,16.8284271 10.5,16 C10.5,15.1715729 11.1715729,14.5 12,14.5 L25.379,14.5 L21.9393398,11.0606602 C21.390165,10.5114854 21.3558416,9.64242298 21.8363696,9.05326224 L21.9393398,8.93933983 C22.5251263,8.35355339 23.4748737,8.35355339 24.0606602,8.93933983 Z" id="形状结合"></path>
                    </g>
                </g>
            </g>
        </g>
    </g>
</svg>