<?xml version="1.0" encoding="UTF-8"?>
<svg width="32px" height="32px" viewBox="0 0 32 32" version="1.1" xmlns="http://www.w3.org/2000/svg" xmlns:xlink="http://www.w3.org/1999/xlink">
    <title>btn_personal_about</title>
    <g id="页面-3" stroke="none" stroke-width="1" fill="none" fill-rule="evenodd">
        <g id="小程序登录" transform="translate(-64.000000, -816.000000)" fill="#999999" fill-rule="nonzero">
            <g id="选项卡" transform="translate(24.000000, 666.000000)">
                <g id="编组备份" transform="translate(0.000000, 16.000000)">
                    <g id="通用/列表个人中心备份-3" transform="translate(0.000000, 100.000000)">
                        <g id="编组" transform="translate(40.000000, 34.000000)">
                            <path d="M16,0 C24.836556,0 32,7.163444 32,16 C32,24.836556 24.836556,32 16,32 C7.163444,32 0,24.836556 0,16 C0,7.163444 7.163444,0 16,0 Z M16,3 C8.82029825,3 3,8.82029825 3,16 C3,23.1797017 8.82029825,29 16,29 C23.1797017,29 29,23.1797017 29,16 C29,8.82029825 23.1797017,3 16,3 Z M16,14 C16.8284271,14 17.5,14.6715729 17.5,15.5 L17.5,23.5 C17.5,24.3284271 16.8284271,25 16,25 C15.1715729,25 14.5,24.3284271 14.5,23.5 L14.5,15.5 C14.5,14.6715729 15.1715729,14 16,14 Z M16,7 C17.1045695,7 18,7.8954305 18,9 C18,10.1045695 17.1045695,11 16,11 C14.8954305,11 14,10.1045695 14,9 C14,7.8954305 14.8954305,7 16,7 Z" id="形状结合"></path>
                        </g>
                    </g>
                </g>
            </g>
        </g>
    </g>
</svg>