<?xml version="1.0" encoding="UTF-8"?>
<svg width="32px" height="32px" viewBox="0 0 32 32" version="1.1" xmlns="http://www.w3.org/2000/svg" xmlns:xlink="http://www.w3.org/1999/xlink">
    <title>btn_personal_guide</title>
    <g id="页面-3" stroke="none" stroke-width="1" fill="none" fill-rule="evenodd">
        <g id="小程序登录" transform="translate(-64.000000, -716.000000)" fill="#979797" fill-rule="nonzero">
            <g id="选项卡" transform="translate(24.000000, 666.000000)">
                <g id="编组备份" transform="translate(0.000000, 16.000000)">
                    <g id="编组" transform="translate(40.000000, 34.000000)">
                        <path d="M25,0.5 C28.0375661,0.5 30.5,2.96243388 30.5,6 L30.5,26 C30.5,29.0375661 28.0375661,31.5 25,31.5 L7,31.5 C3.96243388,31.5 1.5,29.0375661 1.5,26 L1.5,6 C1.5,2.96243388 3.96243388,0.5 7,0.5 Z M25,3.5 L7,3.5 C5.61928813,3.5 4.5,4.61928813 4.5,6 L4.5,26 C4.5,27.3807119 5.61928813,28.5 7,28.5 L25,28.5 C26.3807119,28.5 27.5,27.3807119 27.5,26 L27.5,6 C27.5,4.61928813 26.3807119,3.5 25,3.5 Z M23,21 C23.8284271,21 24.5,21.6715729 24.5,22.5 C24.5,23.3284271 23.8284271,24 23,24 L9,24 C8.17157288,24 7.5,23.3284271 7.5,22.5 C7.5,21.6715729 8.17157288,21 9,21 L23,21 Z M17,15 C17.8284271,15 18.5,15.6715729 18.5,16.5 C18.5,17.3284271 17.8284271,18 17,18 L9,18 C8.17157288,18 7.5,17.3284271 7.5,16.5 C7.5,15.6715729 8.17157288,15 9,15 L17,15 Z M23,9 C23.8284271,9 24.5,9.67157288 24.5,10.5 C24.5,11.3284271 23.8284271,12 23,12 L9,12 C8.17157288,12 7.5,11.3284271 7.5,10.5 C7.5,9.67157288 8.17157288,9 9,9 L23,9 Z" id="形状结合"></path>
                    </g>
                </g>
            </g>
        </g>
    </g>
</svg>