<?xml version="1.0" encoding="UTF-8"?>
<svg width="32px" height="32px" viewBox="0 0 32 32" version="1.1" xmlns="http://www.w3.org/2000/svg" xmlns:xlink="http://www.w3.org/1999/xlink">
    <title>btn_personal_new</title>
    <g id="页面-3" stroke="none" stroke-width="1" fill="none" fill-rule="evenodd">
        <g id="小程序登录" transform="translate(-64.000000, -576.000000)" fill="#979797" fill-rule="nonzero">
            <g id="消息中心" transform="translate(24.000000, 534.000000)">
                <g id="通用/列表个人中心" transform="translate(0.000000, 8.000000)">
                    <g id="编组" transform="translate(40.000000, 34.000000)">
                        <path d="M26,0.5 C29.0375661,0.5 31.5,2.96243388 31.5,6 L31.5,22 C31.5,25.0375661 29.0375661,27.5 26,27.5 L9.62,27.5 L6.47487373,30.6464466 C5.15685425,31.9644661 3.04916931,32.0115382 1.67474515,30.787663 L1.52512627,30.6464466 C0.868748941,29.9900693 0.5,29.0998306 0.5,28.1715729 L0.5,6 C0.5,2.96243388 2.96243388,0.5 6,0.5 Z M26,3.5 L6,3.5 C4.61928813,3.5 3.5,4.61928813 3.5,6 L3.5,28.1715729 C3.5,28.3041811 3.55267842,28.4313581 3.64644661,28.5251263 C3.84170876,28.7203884 4.15829124,28.7203884 4.35355339,28.5251263 L8.37867966,24.5 L26,24.5 C27.3807119,24.5 28.5,23.3807119 28.5,22 L28.5,6 C28.5,4.61928813 27.3807119,3.5 26,3.5 Z M16,12 C17.1045695,12 18,12.8954305 18,14 C18,15.1045695 17.1045695,16 16,16 C14.8954305,16 14,15.1045695 14,14 C14,12.8954305 14.8954305,12 16,12 Z M23,12 C24.1045695,12 25,12.8954305 25,14 C25,15.1045695 24.1045695,16 23,16 C21.8954305,16 21,15.1045695 21,14 C21,12.8954305 21.8954305,12 23,12 Z M9,12 C10.1045695,12 11,12.8954305 11,14 C11,15.1045695 10.1045695,16 9,16 C7.8954305,16 7,15.1045695 7,14 C7,12.8954305 7.8954305,12 9,12 Z" id="形状结合"></path>
                    </g>
                </g>
            </g>
        </g>
    </g>
</svg>