<?xml version="1.0" standalone="no"?><!DOCTYPE svg PUBLIC "-//W3C//DTD SVG 1.1//EN" "http://www.w3.org/Graphics/SVG/1.1/DTD/svg11.dtd"><svg t="1698568520721" class="icon" viewBox="0 0 1024 1024" version="1.1" xmlns="http://www.w3.org/2000/svg" p-id="7970" xmlns:xlink="http://www.w3.org/1999/xlink" width="128" height="128"><path d="M511.4368 512m-436.2752 0a436.2752 436.2752 0 1 0 872.5504 0 436.2752 436.2752 0 1 0-872.5504 0Z" fill="#C0EFFF" p-id="7971"></path><path d="M711.8336 782.592H311.0912c-53.0432 0-96.1024-43.008-96.1024-96.1024V378.624c0-53.0432 43.008-96.1024 96.1024-96.1024h400.7424c53.0432 0 96.1024 43.008 96.1024 96.1024v307.8656c-0.0512 53.0944-43.0592 96.1024-96.1024 96.1024z" fill="#6FCBF6" p-id="7972"></path><path d="M740.5568 353.6384H282.368c-26.2656 0-50.0224 10.5472-67.328 27.5968v305.2544c0 53.0432 43.008 96.1024 96.1024 96.1024h400.7424c53.0432 0 96.1024-43.008 96.1024-96.1024V381.2352c-17.408-17.0496-41.216-27.5968-67.4304-27.5968z" fill="#68BEF3" p-id="7973"></path><path d="M740.5568 424.704H282.368c-26.2656 0-50.0224 10.5472-67.328 27.5968v234.1888c0 53.0432 43.008 96.1024 96.1024 96.1024h400.7424c53.0432 0 96.1024-43.008 96.1024-96.1024V452.352c-17.408-17.1008-41.216-27.648-67.4304-27.648z" fill="#5CAAF0" p-id="7974"></path><path d="M740.5568 495.8208H282.368c-26.2656 0-50.0224 10.5472-67.328 27.5968v163.072c0 53.0432 43.008 96.1024 96.1024 96.1024h400.7424c53.0432 0 96.1024-43.008 96.1024-96.1024v-163.072c-17.408-17.0496-41.216-27.5968-67.4304-27.5968z" fill="#4F94EB" p-id="7975"></path><path d="M740.5568 566.8864H282.368c-26.2656 0-50.0224 10.5472-67.328 27.5968v92.0064c0 53.0432 43.008 96.1024 96.1024 96.1024h400.7424c53.0432 0 96.1024-43.008 96.1024-96.1024v-92.0064c-17.408-17.0496-41.216-27.5968-67.4304-27.5968z" fill="#3A8CE6" p-id="7976"></path><path d="M487.4752 648.2432h-0.512a41.86624 41.86624 0 0 1-31.2832-14.6432l-91.9552-107.4688c-11.008-12.9024-9.5232-32.3072 3.3792-43.3152a30.73536 30.73536 0 0 1 43.3152 3.3792l77.4656 90.5216 121.1392-134.4a30.6944 30.6944 0 0 1 43.3664-2.2528 30.6944 30.6944 0 0 1 2.2528 43.3664l-136.0384 150.9376a41.7536 41.7536 0 0 1-31.1296 13.8752z" fill="#FFFFFF" p-id="7977"></path><path d="M381.4912 372.2752c-16.9472 0-30.72-13.7728-30.72-30.72v-88.064c0-16.9472 13.7728-30.72 30.72-30.72s30.72 13.7728 30.72 30.72v88.064c0 16.9472-13.7216 30.72-30.72 30.72zM633.1392 372.2752c-16.9472 0-30.72-13.7728-30.72-30.72v-88.064c0-16.9472 13.7728-30.72 30.72-30.72s30.72 13.7728 30.72 30.72v88.064c0 16.9472-13.7728 30.72-30.72 30.72z" fill="#3A8CE6" p-id="7978"></path></svg>