<?xml version="1.0" standalone="no"?><!DOCTYPE svg PUBLIC "-//W3C//DTD SVG 1.1//EN" "http://www.w3.org/Graphics/SVG/1.1/DTD/svg11.dtd"><svg t="1698590862130" class="icon" viewBox="0 0 1024 1024" version="1.1" xmlns="http://www.w3.org/2000/svg" p-id="1201" xmlns:xlink="http://www.w3.org/1999/xlink" width="48" height="48"><path d="M512 512m-421.875 0a421.875 421.875 0 1 0 843.75 0 421.875 421.875 0 1 0-843.75 0Z" fill="#FAA332" p-id="1202"></path><path d="M437.67749023 454.07458496c-8.98132325 0-16.31469727-6.92138672-16.31469726-15.57312012s7.25097655-15.57312012 16.31469726-15.57312013h147.98583985c8.98132325 0 16.31469727 6.92138672 16.31469726 15.57312013s-7.25097655 15.57312012-16.31469726 15.57312012H437.67749023z" fill="#FFFFFF" p-id="1203"></path><path d="M379.83447266 357.5871582v308.66088868h264.24865723V357.5871582H379.83447266zM371.34753417 325.78173828h281.22253419c12.85400391 0 23.31848145 10.46447754 23.31848145 23.31848145v325.63476562c0 12.85400391-10.46447754 23.31848145-23.31848145 23.31848146H371.34753417c-12.85400391 0-23.31848145-10.46447754-23.31848144-23.31848144V349.10021972c0-12.85400391 10.46447754-23.31848145 23.31848145-23.31848144z" fill="#FFFFFF" p-id="1204"></path><path d="M437.67749023 535.64807129c-8.98132325 0-16.31469727-6.92138672-16.31469726-15.57312012s7.25097655-15.57312012 16.31469726-15.57312012h147.98583985c8.98132325 0 16.31469727 6.92138672 16.31469726 15.57312012s-7.25097655 15.57312012-16.31469726 15.57312012H437.67749023zM439.90222167 609.72338868c-5.19104004 0-9.31091309-6.92138672-9.31091308-15.57312013s4.20227051-15.57312012 9.3109131-15.57312011h84.95178222c5.19104004 0 9.31091309 6.92138672 9.31091309 15.57312013s-4.20227051 15.57312012-9.31091309 15.57312009H439.90222167z" fill="#FFFFFF" p-id="1205"></path></svg>