<?xml version="1.0" standalone="no"?><!DOCTYPE svg PUBLIC "-//W3C//DTD SVG 1.1//EN" "http://www.w3.org/Graphics/SVG/1.1/DTD/svg11.dtd"><svg t="1698590898317" class="icon" viewBox="0 0 1024 1024" version="1.1" xmlns="http://www.w3.org/2000/svg" p-id="1201" xmlns:xlink="http://www.w3.org/1999/xlink" width="48" height="48"><path d="M519.03509521 759.33245849m-128.39996337 0a128.39996338 128.39996338 0 1 0 256.79992675 0 128.39996338 128.39996338 0 1 0-256.79992676 0Z" fill="#1677FF" p-id="1202"></path><path d="M758.9979248 437.55718994c-10.40020752-126.56744385-114.72528076-223.92333984-239.96282959-223.92333984S289.47247315 310.99139404 279.07226562 437.55883789l-8.36169433 101.72296143c-3.22503662 39.17999268-15.26330567 77.08447266-35.2133789 110.79656982l-26.49902344 44.78137207c-22.42199707 37.89294434-10.0145874 76.86035156 33.14355469 82.98577881 50.18829346 7.12573242 134.86816406 13.58898925 276.89337157 13.58898925 142.02685547 0 226.70507813-6.46325683 276.89337159-13.58898925 43.15979004-6.1270752 55.56555175-45.09283448 33.14355468-82.98577881l-26.49902343-44.78137207c-19.95007324-33.71209717-31.98669434-71.61657714-35.21337891-110.79656982l-8.36169433-101.72296143z" fill="#94BFFF" p-id="1203"></path><path d="M219.33410645 438.02685547c11.81414795-1.08270263 19.11621094-12.02508545 20.769104-23.77496338C252.02941894 329.41546631 295.92584229 256.46405029 362.03662109 210.95263672c8.20184326-5.64257813 14.58929443-14.61401367 11.94104004-24.20837403-3.4821167-12.65625-12.27722168-23.33825684-20.25494384-30.8908081-8.71435547-8.26940917-21.86004638-8.29412842-31.73126221-1.42547607C243.53753662 209.05749511 181.21704102 304.35345459 166.24377441 405.07775878c-1.87866211 12.61175537 4.8614502 24.90380859 17.07604981 28.5968628 10.04754638 3.04046631 22.91967773 5.55194092 36.01593018 4.35223389zM818.73608398 438.02685547c-11.8125-1.08270263-19.11621094-12.02508545-20.769104-23.77496338-11.92456055-84.83642578-55.82098388-157.7878418-121.93176269-203.29925537-8.20019531-5.64257813-14.58929443-14.61401367-11.94104005-24.20837403 3.48376465-12.65625 12.27722168-23.33825684 20.25494385-30.8908081 8.71600342-8.26940917 21.86004638-8.29412842 31.73126221-1.42547607 78.45227051 54.62951661 140.77441406 149.92547607 155.74768066 250.64978026 1.87866211 12.61175537-4.8614502 24.90380859-17.0760498 28.5968628-10.04754638 3.04046631-22.91967773 5.55194092-36.01593018 4.35223389z" fill="#1677FF" p-id="1204"></path></svg>