<?xml version="1.0" standalone="no"?><!DOCTYPE svg PUBLIC "-//W3C//DTD SVG 1.1//EN" "http://www.w3.org/Graphics/SVG/1.1/DTD/svg11.dtd"><svg t="1698590740582" class="icon" viewBox="0 0 1024 1024" version="1.1" xmlns="http://www.w3.org/2000/svg" p-id="1201" xmlns:xlink="http://www.w3.org/1999/xlink" width="48" height="48"><path d="M880.97321652 116.4921875L136.10544542 473.58377462s-44.11528825 38.42990361 0 72.97067385C180.30313061 581.09521948 271.33520095 643.83220206 271.33520095 643.83220206s27.61943295 25.57599085 55.17294897 0L623.08746969 385.27080118s20.69809568-5.09212678 9.62395571 10.28313051L315.45048919 696.31901337l-2.76853537 172.78625121s0 26.89434045 27.55351602 25.57599086h17.9295603s20.69809568 2.63669996 38.62765597-23.07112555l58.00740206-80.5676667s11.00822302-19.24791067 34.40893558 2.52134454l144.83723125 99.86501506s26.23516566 14.0404277 41.37971134 14.0404277h12.40896955s23.45015104 1.31835036 27.61943374-11.46964468L894.74997416 183.06886421l12.37601108-44.82390074S912.67953522 116.4921875 880.97321652 116.4921875z" fill="#69A1E4" p-id="1202"></path></svg>